<svg xmlns="http://www.w3.org/2000/svg" viewBox="0 0 27.07 34.07"><defs><style>.cls-1{fill:none;stroke:#000;stroke-linecap:round;stroke-miterlimit:10;}</style></defs><title>cv-download</title><g id="Calque_2" data-name="Calque 2"><g id="Capa_1" data-name="Capa 1"><path d="M13.54,32.63a.5.5,0,0,1-.5-.5V.5a.5.5,0,0,1,.5-.5.5.5,0,0,1,.5.5V32.13A.5.5,0,0,1,13.54,32.63Z"/><path d="M13.53,32.63h0a.5.5,0,0,1-.35-.14L.65,20a.5.5,0,0,1,0-.71.5.5,0,0,1,.7,0L13.53,31.43,25.72,19.24a.5.5,0,0,1,.7,0,.5.5,0,0,1,0,.71L13.89,32.49A.52.52,0,0,1,13.53,32.63Z"/><line class="cls-1" x1="0.5" y1="33.57" x2="26.57" y2="33.57"/></g></g></svg>