<svg xmlns="http://www.w3.org/2000/svg" viewBox="0 0 729.15 642.65"><defs><style>.cls-1{fill:#fe2c55;}.cls-2{fill:#27f3ee;}</style></defs><title>logoalice</title><g id="Calque_2" data-name="Calque 2"><g id="Calque_4" data-name="Calque 4"><path class="cls-1" d="M516.14,356.39h-159l-26.65,78.27a158.39,158.39,0,0,0-9.16,52.46c0,56.62,57.46,57.46,114.08,57.46h14.16V557.9H203.05V544.58c64.12,0,86.6-40.81,107.42-101.59L446.2,50.79C456.19,21.65,464.51,0,495.32,0h2.5L666,544.58h59.12V557.9H512V544.58H573.6Zm-154-13.33H512L443.7,119.91h-5Z"/><path class="cls-2" d="M374.55,331.63Q401.15,288.05,434,240a568.15,568.15,0,0,1,74.61-88.28A392.8,392.8,0,0,1,601,85.26Q651.58,59,713.64,59q8.11,0,11.82,7t3.69,12.19q0,10.35-15.51,10.34a59.57,59.57,0,0,0-8.13.37,20.61,20.61,0,0,1-3.32.37,11.17,11.17,0,0,0-2.59.37,19.53,19.53,0,0,1-4.43.37,1061.51,1061.51,0,0,0-75.36,117.83,1075.24,1075.24,0,0,0-57.62,121.16Q538.53,388.53,525.62,441T512.7,531.1q0,19.93,7.38,30.65t17.73,10.72q11.82,0,24.38-9.61c2-2,4.92-3,8.87-3A16.25,16.25,0,0,1,581.77,564a12.6,12.6,0,0,1,4.8,10q0,5.92-5.17,11.08-10.35,10.37-21.79,13.67a78.23,78.23,0,0,1-21.8,3.33q-22.9,0-38.78-18.47T483.15,531.1q0-33.25,9.6-76.47a906.16,906.16,0,0,1,26.59-93.45H390.8l-17,27.34q-31,49.5-60.95,95.3t-61.68,80.89q-31.78,35.1-66.49,56.51t-74.62,21.43a108.19,108.19,0,0,1-42.84-8.5A111.56,111.56,0,0,1,8.5,575.79,103.72,103.72,0,0,1,0,534.05a171.64,171.64,0,0,1,10.71-59.47A173.54,173.54,0,0,1,40.63,422.5a151.56,151.56,0,0,1,45.8-36.94q26.59-14,58.37-14t52.45,16.26q20.67,16.26,20.68,45.06,0,26.6-21.42,53.19-4.44,5.18-10.34,5.17a15.4,15.4,0,0,1-10.72-4.43,13.65,13.65,0,0,1-4.8-10.34,18.4,18.4,0,0,1,2.22-8.13,164,164,0,0,0,11.45-19.58,37.06,37.06,0,0,0,4.06-15.88q0-14.76-12.19-23.27t-31.39-8.5a95.15,95.15,0,0,0-46.18,11.46,123.59,123.59,0,0,0-36.56,30.28,140.16,140.16,0,0,0-24,42.85,144.3,144.3,0,0,0-8.5,48.39,76,76,0,0,0,6.28,30.66,77.7,77.7,0,0,0,17.36,25.12,85.55,85.55,0,0,0,25.49,17,77.77,77.77,0,0,0,31.39,6.28q34,0,64.65-20t60.2-54.3Q264.47,504.5,294,458.7t62.06-97.52H320.62q-8.87,0-13.3-4.43a14.29,14.29,0,0,1,0-20.69q4.44-4.43,13.3-4.43ZM656.75,94.49a201.29,201.29,0,0,0-70.92,30.66,394.57,394.57,0,0,0-63.9,54.67,630.92,630.92,0,0,0-58.36,71.29q-27.7,39.17-54.3,80.52H530.43a1231.76,1231.76,0,0,1,54.66-119.31A1051.82,1051.82,0,0,1,656.75,94.49Z"/></g></g></svg>